<svg width="271" height="179" viewBox="0 0 271 179" fill="none" xmlns="http://www.w3.org/2000/svg">
<g filter="url(#filter0_d)">
<path d="M4.5005 148.328C4.5005 145.832 5.0405 143.612 6.1205 141.668C7.2005 139.7 8.7005 138.176 10.6205 137.096C12.5645 135.992 14.7605 135.44 17.2085 135.44C20.2085 135.44 22.7765 136.232 24.9125 137.816C27.0485 139.4 28.4765 141.56 29.1965 144.296H22.4285C21.9245 143.24 21.2045 142.436 20.2685 141.884C19.3565 141.332 18.3125 141.056 17.1365 141.056C15.2405 141.056 13.7045 141.716 12.5285 143.036C11.3525 144.356 10.7645 146.12 10.7645 148.328C10.7645 150.536 11.3525 152.3 12.5285 153.62C13.7045 154.94 15.2405 155.6 17.1365 155.6C18.3125 155.6 19.3565 155.324 20.2685 154.772C21.2045 154.22 21.9245 153.416 22.4285 152.36H29.1965C28.4765 155.096 27.0485 157.256 24.9125 158.84C22.7765 160.4 20.2085 161.18 17.2085 161.18C14.7605 161.18 12.5645 160.64 10.6205 159.56C8.7005 158.456 7.2005 156.932 6.1205 154.988C5.0405 153.044 4.5005 150.824 4.5005 148.328ZM31.7424 150.92C31.7424 148.856 32.1264 147.044 32.8944 145.484C33.6864 143.924 34.7544 142.724 36.0984 141.884C37.4424 141.044 38.9424 140.624 40.5984 140.624C42.0144 140.624 43.2504 140.912 44.3064 141.488C45.3864 142.064 46.2144 142.82 46.7904 143.756V140.912H52.9464V161H46.7904V158.156C46.1904 159.092 45.3504 159.848 44.2704 160.424C43.2144 161 41.9784 161.288 40.5624 161.288C38.9304 161.288 37.4424 160.868 36.0984 160.028C34.7544 159.164 33.6864 157.952 32.8944 156.392C32.1264 154.808 31.7424 152.984 31.7424 150.92ZM46.7904 150.956C46.7904 149.42 46.3584 148.208 45.4944 147.32C44.6544 146.432 43.6224 145.988 42.3984 145.988C41.1744 145.988 40.1304 146.432 39.2664 147.32C38.4264 148.184 38.0064 149.384 38.0064 150.92C38.0064 152.456 38.4264 153.68 39.2664 154.592C40.1304 155.48 41.1744 155.924 42.3984 155.924C43.6224 155.924 44.6544 155.48 45.4944 154.592C46.3584 153.704 46.7904 152.492 46.7904 150.956ZM65.572 161.288C63.82 161.288 62.26 160.988 60.892 160.388C59.524 159.788 58.444 158.972 57.652 157.94C56.86 156.884 56.416 155.708 56.32 154.412H62.404C62.476 155.108 62.8 155.672 63.376 156.104C63.952 156.536 64.66 156.752 65.5 156.752C66.268 156.752 66.856 156.608 67.264 156.32C67.696 156.008 67.912 155.612 67.912 155.132C67.912 154.556 67.612 154.136 67.012 153.872C66.412 153.584 65.44 153.272 64.096 152.936C62.656 152.6 61.456 152.252 60.496 151.892C59.536 151.508 58.708 150.92 58.012 150.128C57.316 149.312 56.968 148.22 56.968 146.852C56.968 145.7 57.28 144.656 57.904 143.72C58.552 142.76 59.488 142.004 60.712 141.452C61.96 140.9 63.436 140.624 65.14 140.624C67.66 140.624 69.64 141.248 71.08 142.496C72.544 143.744 73.384 145.4 73.6 147.464H67.912C67.816 146.768 67.504 146.216 66.976 145.808C66.472 145.4 65.8 145.196 64.96 145.196C64.24 145.196 63.688 145.34 63.304 145.628C62.92 145.892 62.728 146.264 62.728 146.744C62.728 147.32 63.028 147.752 63.628 148.04C64.252 148.328 65.212 148.616 66.508 148.904C67.996 149.288 69.208 149.672 70.144 150.056C71.08 150.416 71.896 151.016 72.592 151.856C73.312 152.672 73.684 153.776 73.708 155.168C73.708 156.344 73.372 157.4 72.7 158.336C72.052 159.248 71.104 159.968 69.856 160.496C68.632 161.024 67.204 161.288 65.572 161.288ZM89.8222 140.696C92.1262 140.696 93.9742 141.464 95.3662 143C96.7582 144.512 97.4542 146.6 97.4542 149.264V161H91.3342V150.092C91.3342 148.748 90.9862 147.704 90.2902 146.96C89.5942 146.216 88.6582 145.844 87.4822 145.844C86.3062 145.844 85.3702 146.216 84.6742 146.96C83.9782 147.704 83.6302 148.748 83.6302 150.092V161H77.4742V134.36H83.6302V143.612C84.2542 142.724 85.1062 142.016 86.1862 141.488C87.2662 140.96 88.4782 140.696 89.8222 140.696Z" fill="#00EB84"/>
<path d="M130.352 135.728V161H124.196V145.844L118.544 161H113.576L107.888 145.808V161H101.732V135.728H109.004L116.096 153.224L123.116 135.728H130.352ZM133.555 150.92C133.555 148.856 133.939 147.044 134.707 145.484C135.499 143.924 136.567 142.724 137.911 141.884C139.255 141.044 140.755 140.624 142.411 140.624C143.827 140.624 145.063 140.912 146.119 141.488C147.199 142.064 148.027 142.82 148.603 143.756V140.912H154.759V161H148.603V158.156C148.003 159.092 147.163 159.848 146.083 160.424C145.027 161 143.791 161.288 142.375 161.288C140.743 161.288 139.255 160.868 137.911 160.028C136.567 159.164 135.499 157.952 134.707 156.392C133.939 154.808 133.555 152.984 133.555 150.92ZM148.603 150.956C148.603 149.42 148.171 148.208 147.307 147.32C146.467 146.432 145.435 145.988 144.211 145.988C142.987 145.988 141.943 146.432 141.079 147.32C140.239 148.184 139.819 149.384 139.819 150.92C139.819 152.456 140.239 153.68 141.079 154.592C141.943 155.48 142.987 155.924 144.211 155.924C145.435 155.924 146.467 155.48 147.307 154.592C148.171 153.704 148.603 152.492 148.603 150.956ZM171.452 140.696C173.804 140.696 175.676 141.464 177.068 143C178.484 144.512 179.192 146.6 179.192 149.264V161H173.072V150.092C173.072 148.748 172.724 147.704 172.028 146.96C171.332 146.216 170.396 145.844 169.22 145.844C168.044 145.844 167.108 146.216 166.412 146.96C165.716 147.704 165.368 148.748 165.368 150.092V161H159.212V140.912H165.368V143.576C165.992 142.688 166.832 141.992 167.888 141.488C168.944 140.96 170.132 140.696 171.452 140.696ZM182.246 150.92C182.246 148.856 182.63 147.044 183.398 145.484C184.19 143.924 185.258 142.724 186.602 141.884C187.946 141.044 189.446 140.624 191.102 140.624C192.518 140.624 193.754 140.912 194.81 141.488C195.89 142.064 196.718 142.82 197.294 143.756V140.912H203.45V161H197.294V158.156C196.694 159.092 195.854 159.848 194.774 160.424C193.718 161 192.482 161.288 191.066 161.288C189.434 161.288 187.946 160.868 186.602 160.028C185.258 159.164 184.19 157.952 183.398 156.392C182.63 154.808 182.246 152.984 182.246 150.92ZM197.294 150.956C197.294 149.42 196.862 148.208 195.998 147.32C195.158 146.432 194.126 145.988 192.902 145.988C191.678 145.988 190.634 146.432 189.77 147.32C188.93 148.184 188.51 149.384 188.51 150.92C188.51 152.456 188.93 153.68 189.77 154.592C190.634 155.48 191.678 155.924 192.902 155.924C194.126 155.924 195.158 155.48 195.998 154.592C196.862 153.704 197.294 152.492 197.294 150.956ZM215.536 140.624C216.952 140.624 218.188 140.912 219.244 141.488C220.324 142.064 221.152 142.82 221.728 143.756V140.912H227.884V160.964C227.884 162.812 227.512 164.48 226.768 165.968C226.048 167.48 224.932 168.68 223.42 169.568C221.932 170.456 220.072 170.9 217.84 170.9C214.864 170.9 212.452 170.192 210.604 168.776C208.756 167.384 207.7 165.488 207.436 163.088H213.52C213.712 163.856 214.168 164.456 214.888 164.888C215.608 165.344 216.496 165.572 217.552 165.572C218.824 165.572 219.832 165.2 220.576 164.456C221.344 163.736 221.728 162.572 221.728 160.964V158.12C221.128 159.056 220.3 159.824 219.244 160.424C218.188 161 216.952 161.288 215.536 161.288C213.88 161.288 212.38 160.868 211.036 160.028C209.692 159.164 208.624 157.952 207.832 156.392C207.064 154.808 206.68 152.984 206.68 150.92C206.68 148.856 207.064 147.044 207.832 145.484C208.624 143.924 209.692 142.724 211.036 141.884C212.38 141.044 213.88 140.624 215.536 140.624ZM221.728 150.956C221.728 149.42 221.296 148.208 220.432 147.32C219.592 146.432 218.56 145.988 217.336 145.988C216.112 145.988 215.068 146.432 214.204 147.32C213.364 148.184 212.944 149.384 212.944 150.92C212.944 152.456 213.364 153.68 214.204 154.592C215.068 155.48 216.112 155.924 217.336 155.924C218.56 155.924 219.592 155.48 220.432 154.592C221.296 153.704 221.728 152.492 221.728 150.956ZM251.273 150.632C251.273 151.208 251.237 151.808 251.165 152.432H237.233C237.329 153.68 237.725 154.64 238.421 155.312C239.141 155.96 240.017 156.284 241.049 156.284C242.585 156.284 243.653 155.636 244.253 154.34H250.805C250.469 155.66 249.857 156.848 248.969 157.904C248.105 158.96 247.013 159.788 245.693 160.388C244.373 160.988 242.897 161.288 241.265 161.288C239.297 161.288 237.545 160.868 236.009 160.028C234.473 159.188 233.273 157.988 232.409 156.428C231.545 154.868 231.113 153.044 231.113 150.956C231.113 148.868 231.533 147.044 232.373 145.484C233.237 143.924 234.437 142.724 235.973 141.884C237.509 141.044 239.273 140.624 241.265 140.624C243.209 140.624 244.937 141.032 246.449 141.848C247.961 142.664 249.137 143.828 249.977 145.34C250.841 146.852 251.273 148.616 251.273 150.632ZM244.973 149.012C244.973 147.956 244.613 147.116 243.893 146.492C243.173 145.868 242.273 145.556 241.193 145.556C240.161 145.556 239.285 145.856 238.565 146.456C237.869 147.056 237.437 147.908 237.269 149.012H244.973ZM260.677 144.26C261.397 143.156 262.297 142.292 263.377 141.668C264.457 141.02 265.657 140.696 266.977 140.696V147.212H265.285C263.749 147.212 262.597 147.548 261.829 148.22C261.061 148.868 260.677 150.02 260.677 151.676V161H254.521V140.912H260.677V144.26Z" fill="#180A29"/>
</g>
<g filter="url(#filter1_d)">
<path fill-rule="evenodd" clip-rule="evenodd" d="M154.144 71.4025C156.122 69.8381 158.102 68.2813 160.079 66.7169C161.634 65.485 163.384 64.9699 165.356 65.2583C167.233 65.5304 168.561 66.9487 168.373 68.605C168.309 69.1642 168.063 69.7499 167.749 70.2248C166.989 71.3962 166.132 72.5008 165.33 73.6445C165.117 73.9443 164.963 74.2831 164.783 74.6056C164.691 74.7303 164.599 74.8525 164.507 74.9759C164.403 75.0867 164.302 75.1988 164.197 75.3072C164.146 75.3449 164.095 75.3865 164.104 75.3802C164.098 75.3878 164.136 75.3374 164.175 75.2883C164.287 75.1837 164.398 75.0817 164.509 74.9772C164.632 74.8852 164.754 74.792 164.873 74.6988C165.301 74.3877 165.757 74.1093 166.151 73.7654C167.374 72.7124 168.512 71.5511 169.796 70.5838C171.615 69.2209 173.618 68.4362 175.976 69.1139C179.127 70.0144 179.412 73.011 178.298 74.8814C177.315 76.5352 176.046 78.0228 174.924 79.5973C174.654 79.9751 174.465 80.4109 174.24 80.819C174.177 80.8568 174.118 80.8921 174.139 80.8795C174.124 80.8984 174.171 80.848 174.219 80.7976C175.361 79.824 176.49 78.8302 177.655 77.8792C179.029 76.7557 180.397 75.6107 181.838 74.5779C183.451 73.4266 185.331 73.147 187.253 73.4077C190.878 73.8927 192.494 77.2809 190.584 80.3933C188.323 84.0851 185.688 87.4948 182.721 90.6512C176.966 96.774 170.33 101.701 162.729 105.281C156.597 108.173 150.173 110.109 143.426 110.987C139.291 111.529 135.148 111.74 131.002 111.505C122.745 111.037 114.827 109.127 107.28 105.674C98.9681 101.866 91.7634 96.5536 85.6557 89.7821C83.6744 87.5892 81.9299 85.1734 80.1791 82.7802C79.4574 81.7914 78.8969 80.6465 78.4497 79.5003C77.4635 76.9849 78.0983 75.1031 80.3643 73.6521C81.8153 72.7188 83.2903 71.803 84.8232 71.0234C88.0401 69.3884 91.2482 67.7094 94.5622 66.2937C98.5915 64.5756 102.835 64.1033 107.227 64.5265C113.454 65.1298 119.009 67.4437 124.201 70.7765C126.607 72.3195 128.953 73.9594 131.338 75.5351C134.588 77.689 138.22 78.7911 142.013 79.5519C145.139 80.1779 148.138 81.27 150.9 82.9087C151.732 83.3986 152.517 83.9856 153.244 84.6192C155.635 86.7012 156.072 89.0541 155.079 91.9385C154.059 94.8922 151.735 96.1959 148.721 96.3206C146.042 96.4327 143.465 95.7878 140.975 94.8947C137.88 93.7838 134.855 92.4877 131.787 91.3012C128.222 89.9219 124.666 88.4986 121.055 87.2454C119.761 86.7995 118.316 86.7604 116.932 86.6042C116.326 86.5325 115.72 86.6572 115.594 87.4721C115.736 88.3689 116.491 88.6183 117.197 88.8564C118.421 89.2695 119.675 89.5932 120.91 89.9874C124.77 91.2206 128.492 92.7938 132.136 94.5647C136.472 96.6695 140.981 98.2868 145.746 99.1004C147.829 99.4531 149.943 99.5463 151.973 98.7805C155.887 97.3093 158.114 94.3544 158.597 90.325C158.998 86.9872 157.412 84.2728 154.855 82.1378C153.13 80.6943 151.085 79.8252 148.982 79.135C146.22 78.2281 143.416 77.4409 140.628 76.5995C139.557 76.2733 138.49 75.9319 137.354 75.5754C137.491 75.292 137.519 75.1157 137.623 75.0351C141.081 72.3648 144.529 69.687 148.02 67.0633C149.094 66.2546 150.244 65.5329 151.417 64.883C152.544 64.2607 153.77 64.1197 155.006 64.6373C156.741 65.3603 157.279 67.0444 156.222 68.5974C155.797 69.2171 155.228 69.7323 154.77 70.3306C154.52 70.6606 154.365 71.0574 154.169 71.4226C154.136 71.4529 154.103 71.4856 154.073 71.5133C154.093 71.4781 154.12 71.4403 154.144 71.4025Z" fill="#180A29"/>
<path d="M155.417 13.5643C156.019 12.5151 156.512 11.6498 157.062 10.6849C147.745 7.08886 138.648 3.49531 129.465 0C128.993 0.626006 128.631 1.08827 128.288 1.56313C123.245 8.54114 117.606 14.9662 110.832 20.3307C106.194 24.0049 101.174 27.0127 95.5119 28.8542C92.9474 29.6893 90.3149 30.1932 87.3121 30.3632C94.5458 39.9548 101.638 49.3588 108.873 58.9479C111.035 57.7462 113.038 56.6378 115.081 55.5029C116.047 57.216 116.015 59.1658 117.03 60.6596C117.25 60.6596 117.36 60.6785 117.462 60.6571C129.782 58.1241 141.574 54.1048 152.616 48.0249C159.169 44.4162 165.198 40.0909 170.33 34.6004C170.828 34.0688 171.242 33.4643 171.694 32.8949C166.223 26.2923 160.681 19.9944 155.417 13.5643ZM110.183 54.9802C103.888 47.254 97.7665 39.4938 91.4561 31.5875C92.2156 31.3671 92.7547 31.2096 93.2963 31.056C97.2161 29.9538 100.851 28.2207 104.339 26.1361C110.924 22.1999 116.611 17.1793 121.813 11.5969C124.272 8.9568 126.536 6.13788 128.888 3.40084C129.061 3.19931 129.239 3.00407 129.515 2.68918C137.438 5.97918 145.233 9.21879 153.219 12.5378C142.241 30.2335 128.072 44.3306 110.183 54.9802ZM139.171 37.8387C139.737 39.0076 140.308 40.1853 140.927 41.3303C141.198 41.8341 141.831 41.6716 142.309 41.4348C142.335 41.4197 142.364 41.4071 142.389 41.392C143.916 40.5619 144.9 38.7116 144.519 36.9873C144.484 36.8298 144.418 36.6686 144.352 36.4998C144.243 36.5565 144.138 36.6081 144.034 36.6585C142.979 37.1737 142.229 37.0137 141.738 36.224C141.45 35.763 141.261 35.3511 141.151 34.9669C141.042 34.5878 141.044 34.2288 141.137 33.9076C141.278 33.7729 141.424 33.6368 141.567 33.502C141.826 33.2577 142.083 33.0095 142.335 32.7614C142.694 32.6506 143.098 32.6153 143.546 32.6569C144.643 32.7614 145.616 33.1922 146.375 33.992C149.191 36.9558 146.529 41.1917 144.146 43.1264C144.029 43.2221 143.878 43.3116 143.733 43.3884C142.223 44.1782 139.363 44.2298 138.551 42.508C138.129 41.6112 137.768 40.5871 137.381 39.6462C137.146 39.0845 136.914 38.5277 136.68 37.9723C137.728 37.0906 138.737 36.166 139.738 35.2264C139.86 35.268 139.984 35.302 140.113 35.3221C140.446 35.37 140.612 35.3939 140.951 35.4367C140.01 35.9406 139.543 36.1849 138.595 36.6673C138.791 37.0603 138.982 37.4508 139.171 37.8387ZM164.046 37.5982C151.601 47.9518 137.161 53.9827 121.43 57.1958C120.487 57.3873 119.532 57.5183 118.41 57.7022C118.013 56.4753 117.64 55.3165 117.237 54.0658C118.61 53.077 119.953 52.1109 121.29 51.1486C122.606 51.6537 123.254 52.708 123.91 53.8932C124.306 53.8592 124.738 53.8869 125.131 53.7786C133.987 51.3275 142.64 48.3373 150.749 43.9401C154.368 41.9789 157.767 39.7029 160.705 36.787C161.084 36.4091 161.43 35.9998 161.76 35.6408C161.02 31.9162 161.478 32.046 162.678 30.6542C159.924 25.8502 157.14 21.0474 153.379 16.6641C153.674 16.2207 153.974 15.7698 154.394 15.1388C155.215 15.9663 155.96 16.5885 156.552 17.3342C160.566 22.409 164.548 27.5103 168.537 32.6065C168.6 32.6858 168.615 32.8017 168.716 33.0662C167.291 34.642 165.735 36.1937 164.046 37.5982Z" fill="#180A29"/>
<path d="M128.508 3.0754C127.769 3.93618 127.041 4.80103 126.315 5.66363C124.719 7.56105 123.131 9.4476 121.447 11.2561C116.266 16.8155 110.615 21.8018 104.082 25.7069C100.621 27.7759 97.0267 29.4877 93.161 30.5746L93.1598 30.5749C92.7188 30.7001 92.2791 30.8278 91.7238 30.9891C91.5948 31.0266 91.4596 31.0658 91.3167 31.1073L90.5992 31.3155L91.0653 31.8994C92.7406 33.9984 94.4031 36.0877 96.0592 38.1691C100.639 43.9246 105.171 49.6199 109.796 55.2961L110.068 55.6306L110.439 55.4099C128.398 44.718 142.624 30.5632 153.644 12.8014L153.954 12.3017L153.411 12.076C145.425 8.75708 137.63 5.51744 129.707 2.22741L129.376 2.08979L129.139 2.35972C129.024 2.49125 128.922 2.60557 128.83 2.70939C128.71 2.8442 128.606 2.96131 128.508 3.0754ZM128.508 3.0754C128.508 3.07548 128.508 3.07556 128.508 3.07564L128.888 3.40084L128.509 3.075C128.509 3.07513 128.508 3.07527 128.508 3.0754ZM139.621 37.6198L139.621 37.621C140.187 38.7909 140.754 39.9589 141.367 41.0926L141.367 41.0935C141.388 41.1324 141.404 41.1406 141.412 41.1443C141.425 41.151 141.459 41.1624 141.526 41.1605C141.67 41.1564 141.867 41.0946 142.077 40.9918C142.095 40.9817 142.112 40.9733 142.121 40.9688L142.124 40.9672C142.13 40.964 142.134 40.9622 142.135 40.9616C142.135 40.9614 142.135 40.9613 142.135 40.9613L142.141 40.9578L142.15 40.9527C143.475 40.2327 144.317 38.6518 144.052 37.2003C143.543 37.4187 143.046 37.5125 142.579 37.4213C142.032 37.3145 141.615 36.9721 141.314 36.4884M139.621 37.6198L141.458 35.7322C141.539 35.8902 141.632 36.0537 141.738 36.224L141.314 36.4881C141.314 36.4882 141.314 36.4883 141.314 36.4884M139.621 37.6198C139.502 37.3771 139.383 37.1332 139.262 36.8882M139.621 37.6198L139.262 36.8882M141.314 36.4884C141.203 36.3106 141.104 36.1376 141.017 35.9683C140.332 36.3349 139.892 36.5654 139.262 36.8882M141.314 36.4884L139.262 36.8882M144.462 43.5141C144.307 43.6411 144.121 43.7486 143.968 43.8301L143.965 43.8315C143.116 44.2753 141.924 44.5003 140.829 44.3874C139.742 44.2753 138.612 43.8093 138.099 42.7211L138.099 42.7208C137.815 42.1179 137.552 41.4442 137.299 40.7948C137.171 40.4655 137.045 40.1424 136.919 39.838C136.836 39.6385 136.753 39.44 136.67 39.2423C136.52 38.8823 136.37 38.5245 136.219 38.1666L136.076 37.827L136.358 37.5897C137.395 36.7166 138.397 35.7992 139.396 34.8618L139.615 34.6563L139.899 34.753C140.002 34.7881 140.095 34.8132 140.188 34.8277C140.361 34.8526 140.488 34.8709 140.618 34.8887C140.539 34.5 140.555 34.1206 140.657 33.7683L140.695 33.639L140.792 33.5461C140.878 33.4643 140.968 33.3796 141.056 33.2966C141.113 33.243 141.169 33.19 141.223 33.139L141.224 33.138C141.48 32.8965 141.735 32.651 141.984 32.4052L142.071 32.3196L142.188 32.2837C142.62 32.1502 143.091 32.1125 143.592 32.159L143.593 32.1591C144.797 32.2738 145.887 32.7509 146.737 33.6476C148.315 35.3077 148.335 37.3264 147.68 39.1168C147.032 40.8895 145.708 42.5023 144.462 43.5141ZM144.462 43.5141C144.462 43.5143 144.462 43.5144 144.462 43.5146L144.146 43.1264L144.463 43.5136C144.463 43.5138 144.462 43.5139 144.462 43.5141ZM168.537 32.6065L168.928 32.2957C169.019 32.4105 169.062 32.5354 169.085 32.6061L169.086 32.6072C169.093 32.6294 169.1 32.6509 169.107 32.6727C169.128 32.7348 169.149 32.7993 169.183 32.8882L169.292 33.1744L169.086 33.4015C167.65 34.99 166.078 36.5594 164.366 37.9826C151.844 48.3996 137.324 54.4597 121.53 57.6857L121.529 57.6858C120.857 57.8222 120.174 57.9293 119.443 58.0439C119.135 58.0922 118.818 58.1419 118.49 58.1956L118.066 58.2651L117.934 57.856C117.629 56.9129 117.338 56.01 117.037 55.0749C116.946 54.7932 116.854 54.5086 116.761 54.2191L116.649 53.8727L116.945 53.66C118.318 52.6712 119.661 51.7051 120.998 50.7427L121.217 50.5851L121.469 50.6818C122.856 51.2138 123.577 52.2864 124.194 53.3765C124.229 53.3752 124.263 53.3739 124.296 53.3727C124.368 53.3701 124.436 53.3676 124.495 53.3645C124.69 53.3542 124.854 53.3362 124.998 53.2966C133.835 50.8506 142.448 47.8724 150.511 43.5006L150.511 43.5005C154.103 41.5537 157.459 39.3043 160.352 36.4329C160.6 36.1859 160.825 35.9332 161.052 35.6789C161.108 35.6162 161.165 35.5534 161.221 35.4905C160.895 33.8055 160.81 32.8446 161.01 32.1363C161.122 31.743 161.313 31.451 161.539 31.1778C161.649 31.0451 161.772 30.9118 161.896 30.7767C161.951 30.7167 162.008 30.6553 162.066 30.5912C159.368 25.8894 156.645 21.2383 153 16.9897L152.753 16.7025L152.963 16.3873C153.257 15.9439 153.557 15.4928 153.978 14.8614L154.318 14.352L154.749 14.7866C154.996 15.0353 155.246 15.2738 155.491 15.5084C156.018 16.0115 156.525 16.4961 156.943 17.0233L156.944 17.024C160.248 21.2011 163.53 25.3962 166.812 29.5904C167.518 30.4931 168.224 31.3958 168.93 32.2983L168.537 32.6065ZM168.537 32.6065C168.576 32.6556 168.596 32.7186 168.63 32.822C168.651 32.8859 168.677 32.9653 168.716 33.0662L168.537 32.6065ZM154.983 13.3155L154.812 13.6144L155.03 13.881C157.88 17.3626 160.827 20.823 163.796 24.31C166.213 27.1486 168.646 30.005 171.053 32.9049C170.985 32.994 170.918 33.0818 170.853 33.1686C170.561 33.5529 170.287 33.9149 169.965 34.2587L169.965 34.2589C164.877 39.702 158.894 43.997 152.375 47.5869C141.385 53.6384 129.642 57.6422 117.364 60.1669C117.36 60.1671 117.345 60.1677 117.309 60.1667C116.942 59.5471 116.736 58.836 116.52 58.0332C116.507 57.9858 116.494 57.9381 116.481 57.8901C116.256 57.0537 116.008 56.129 115.516 55.2573L115.272 54.8246L114.838 55.0659C113.937 55.566 113.044 56.0615 112.141 56.5622C111.118 57.1298 110.082 57.7041 109.011 58.2996C102.052 49.076 95.2211 40.0198 88.2667 30.7986C90.9334 30.5814 93.3275 30.0914 95.6665 29.3297C101.399 27.4653 106.471 24.4232 111.142 20.7227C117.963 15.3214 123.633 8.85867 128.694 1.85601L128.694 1.85567C128.92 1.54178 129.153 1.23651 129.426 0.878701C129.493 0.789587 129.564 0.697215 129.637 0.600639C135.149 2.70056 140.629 4.83451 146.147 6.98347C149.525 8.29882 152.917 9.61979 156.34 10.942C156.326 10.9654 156.313 10.9887 156.3 11.012C155.874 11.7591 155.464 12.4787 154.983 13.3155ZM143.546 32.6569C144.643 32.7614 145.616 33.1922 146.375 33.992L141.137 33.9076C141.222 33.8265 141.309 33.7449 141.396 33.6634C141.453 33.6095 141.51 33.5557 141.567 33.502C141.826 33.2577 142.083 33.0095 142.335 32.7614C142.694 32.6506 143.098 32.6153 143.546 32.6569ZM143.733 43.3884C142.223 44.1782 139.363 44.2298 138.551 42.508C138.274 41.9193 138.023 41.2758 137.774 40.6369C137.644 40.3026 137.514 39.9695 137.381 39.6462L143.733 43.3884Z" stroke="#00EB84" stroke-opacity="0.33"/>
<path d="M145.672 19.5019C143.252 17.0747 144.063 14.6979 145.601 12.2581C141.134 10.2592 136.764 8.30687 132.324 6.32053C130.934 8.36229 129.346 10.0022 126.446 9.34979C126.243 9.61052 126.045 9.94179 125.776 10.2025C123.382 12.5365 121.045 14.9284 118.567 17.1692C112.854 22.3322 106.67 26.7873 99.2881 29.479C99.8007 31.9729 98.4958 33.5688 96.4087 34.8712C99.9645 39.1336 103.435 43.2952 106.848 47.3863C111.199 46.4189 112.318 46.5424 115.674 48.331C116.265 48.0261 116.799 47.7654 117.319 47.4795C121.7 45.0737 125.524 41.9248 129.154 38.5315C133.854 34.1407 138.058 29.2963 142.074 24.2858C143.311 22.7428 144.456 21.1243 145.672 19.5019ZM130.071 32.5498C129.986 32.6745 129.865 32.8017 129.747 32.9163C128.511 34.0915 125.776 34.9291 124.521 33.497C123.869 32.7513 123.239 31.8659 122.608 31.0698C122.178 30.5282 121.75 29.9941 121.322 29.4639C120.469 30.0294 120.256 29.9841 118.908 29.5735C118.722 29.5155 118.628 29.4865 118.444 29.4286C119.102 28.8303 119.426 28.533 120.068 27.9385C119.878 27.7055 119.689 27.475 119.503 27.247C118.798 26.388 118.125 25.5919 117.396 24.8387C117.313 24.7518 116.904 24.7153 116.761 24.8035C116.755 24.806 116.749 24.8098 116.743 24.8161C116.646 24.908 116.572 25.1687 116.51 25.3803C116.491 25.4458 116.472 25.5088 116.453 25.5693C116.455 25.5831 116.479 25.665 116.493 25.7204C116.511 25.7847 116.533 25.8577 116.547 25.9383C116.566 26.0441 116.574 26.097 116.595 26.2041C115.634 26.4699 115.157 26.5983 114.205 26.8578C114.181 26.7482 114.171 26.6941 114.146 26.5832C113.821 25.1347 114.507 24.2203 115.178 23.559C116.001 22.7453 116.975 22.5388 117.979 22.9708C119.201 23.4948 120.016 24.4709 120.8 25.432C120.813 25.4471 120.819 25.4547 120.833 25.471C121.045 25.7305 121.257 25.9925 121.482 26.2721C121.526 26.3263 121.547 26.354 121.591 26.4094C122.132 25.9761 122.69 26.0605 123.193 26.1273C123.467 26.1613 123.75 26.1965 124.044 26.1588C124.376 26.1134 124.544 26.0907 124.881 26.0391C124.114 26.781 123.731 27.1463 122.955 27.8705C123.25 28.1942 123.542 28.5167 123.828 28.8391C124.696 29.8077 125.569 30.7814 126.477 31.7122C126.876 32.1216 127.442 31.7903 127.836 31.4301C127.859 31.4099 127.88 31.3885 127.902 31.3671C129.14 30.1478 129.577 28.0985 128.736 26.548C128.657 26.4069 128.552 26.2683 128.445 26.1247C128.354 26.2091 128.268 26.2885 128.183 26.3641C127.308 27.1513 126.544 27.2042 125.854 26.5795C125.449 26.2154 125.152 25.8716 124.942 25.5327C124.463 24.7619 124.54 23.9318 125.155 23.3373C125.506 22.996 126.004 22.7655 126.608 22.6521C127.691 22.4493 128.744 22.5967 129.697 23.1547C133.222 25.2267 131.829 30.0319 130.071 32.5498Z" fill="#180A29"/>
</g>
<defs>
<filter id="filter0_d" x="0.500488" y="134.36" width="270.477" height="44.54" filterUnits="userSpaceOnUse" color-interpolation-filters="sRGB">
<feFlood flood-opacity="0" result="BackgroundImageFix"/>
<feColorMatrix in="SourceAlpha" type="matrix" values="0 0 0 0 0 0 0 0 0 0 0 0 0 0 0 0 0 0 127 0"/>
<feOffset dy="4"/>
<feGaussianBlur stdDeviation="2"/>
<feColorMatrix type="matrix" values="0 0 0 0 0 0 0 0 0 0 0 0 0 0 0 0 0 0 0.25 0"/>
<feBlend mode="normal" in2="BackgroundImageFix" result="effect1_dropShadow"/>
<feBlend mode="normal" in="SourceGraphic" in2="effect1_dropShadow" result="shape"/>
</filter>
<filter id="filter1_d" x="74" y="0" width="121.393" height="119.6" filterUnits="userSpaceOnUse" color-interpolation-filters="sRGB">
<feFlood flood-opacity="0" result="BackgroundImageFix"/>
<feColorMatrix in="SourceAlpha" type="matrix" values="0 0 0 0 0 0 0 0 0 0 0 0 0 0 0 0 0 0 127 0"/>
<feOffset dy="4"/>
<feGaussianBlur stdDeviation="2"/>
<feColorMatrix type="matrix" values="0 0 0 0 0 0 0 0 0 0 0 0 0 0 0 0 0 0 0.25 0"/>
<feBlend mode="normal" in2="BackgroundImageFix" result="effect1_dropShadow"/>
<feBlend mode="normal" in="SourceGraphic" in2="effect1_dropShadow" result="shape"/>
</filter>
</defs>
</svg>
